<svg width="32" height="32" viewBox="0 0 32 32" fill="none" xmlns="http://www.w3.org/2000/svg">
  <!-- Robot head/body - main rectangle with rounded corners -->
  <rect x="6" y="8" width="20" height="20" rx="4" ry="4" fill="#8B5CF6"/>
  
  <!-- Antenna/ears -->
  <rect x="8" y="4" width="3" height="6" rx="1.5" ry="1.5" fill="#8B5CF6"/>
  <rect x="21" y="4" width="3" height="6" rx="1.5" ry="1.5" fill="#8B5CF6"/>
  
  <!-- Eyes -->
  <circle cx="12" cy="16" r="2" fill="black"/>
  <circle cx="20" cy="16" r="2" fill="black"/>
  
  <!-- Mouth/grid display -->
  <rect x="10" y="22" width="12" height="4" rx="1" ry="1" fill="black"/>
  <!-- Grid pattern -->
  <rect x="11" y="23" width="2" height="2" fill="#8B5CF6"/>
  <rect x="14" y="23" width="2" height="2" fill="#8B5CF6"/>
  <rect x="17" y="23" width="2" height="2" fill="#8B5CF6"/>
  <rect x="20" y="23" width="2" height="2" fill="#8B5CF6"/>
  <rect x="11" y="25" width="2" height="2" fill="#8B5CF6"/>
  <rect x="14" y="25" width="2" height="2" fill="#8B5CF6"/>
  <rect x="17" y="25" width="2" height="2" fill="#8B5CF6"/>
  <rect x="20" y="25" width="2" height="2" fill="#8B5CF6"/>
</svg>
