<svg width="200" height="200" viewBox="0 0 200 200" fill="none" xmlns="http://www.w3.org/2000/svg">
  <!-- Robot head/body - main rectangle with rounded corners -->
  <rect x="40" y="50" width="120" height="120" rx="20" ry="20" fill="#8B5CF6"/>
  
  <!-- Antenna/ears -->
  <rect x="50" y="25" width="20" height="35" rx="10" ry="10" fill="#8B5CF6"/>
  <rect x="130" y="25" width="20" height="35" rx="10" ry="10" fill="#8B5CF6"/>
  
  <!-- Eyes -->
  <circle cx="75" cy="100" r="12" fill="black"/>
  <circle cx="125" cy="100" r="12" fill="black"/>
  
  <!-- Mouth/grid display -->
  <rect x="60" y="140" width="80" height="20" rx="5" ry="5" fill="black"/>
  <!-- Grid pattern -->
  <rect x="70" y="145" width="12" height="10" fill="#8B5CF6"/>
  <rect x="85" y="145" width="12" height="10" fill="#8B5CF6"/>
  <rect x="100" y="145" width="12" height="10" fill="#8B5CF6"/>
  <rect x="115" y="145" width="12" height="10" fill="#8B5CF6"/>
  <rect x="70" y="155" width="12" height="10" fill="#8B5CF6"/>
  <rect x="85" y="155" width="12" height="10" fill="#8B5CF6"/>
  <rect x="100" y="155" width="12" height="10" fill="#8B5CF6"/>
  <rect x="115" y="155" width="12" height="10" fill="#8B5CF6"/>
</svg>
