<svg width="600" height="180" viewBox="0 0 600 180" fill="none" xmlns="http://www.w3.org/2000/svg">
<path d="M36.2415 19.322L42.7852 14.7458L49.6437 10.678L57.3825 7.11864L65.9396 4.0678L73.4899 2.0339L80.2231 1.01695L88.0872 0L94.8837 0H103.188L110.738 1.08197L118.413 2.54237L125.336 4.57627L132.886 7.11864L140.436 10.678L147.483 14.7458L153.526 19.322L131.882 43.7748L125.839 40.1695L119.295 37.1186L113.758 35.0847L109.732 34.0678L106.711 33.5593L99.1611 32.5424H92.6174L84.5638 33.5593L77.0134 35.5932L70.4698 38.1356L58.3893 45.2542L53.8591 49.8305L49.3289 54.4068L46.3087 58.4746L43.7919 62.2997L41.7785 65.5932L40.2685 69.1525L39.2617 72.7119L38.255 76.2712L37.7517 78.3051L37.2483 80.339L36.745 83.3898L36.2416 86.9492L36.2415 90.5316V94.5763L36.745 98.6441L37.2483 102.712L38.398 106.271L39.7651 109.831L40.7718 112.881L42.2819 115.932L43.7919 118.74L47.3154 124.068L51.0365 128.644L55.8725 133.22L60.0314 136.78L65.4362 140.339L70.9732 142.949L77.0134 145.458L84.0604 147.458L87.5839 147.966L90.604 148.475H96.6443L103.188 147.966L106.208 147.458L109.228 146.949L115.772 145.458L121.812 142.949L124.329 141.864L126.846 140.339L131.882 137.288L153.526 160.678L146.477 165.763L138.423 170.339L131.376 173.39L124.205 175.932L116.779 177.966L109.544 178.983L102.181 180H94.8837H87.5839L80.2231 178.983L72.9866 177.966L65.5626 175.932L57.3825 172.881L49.8954 169.322L42.7852 165.254L36.2415 160.678L30.7047 156.61L26.4892 152.542L22.1477 147.966L18.1208 143.009L15.1007 138.814L12.0805 134.174L9.56376 129.661L7.55034 125.339L6.04027 122.034L4.5302 117.458L3.02013 112.881L1.51007 107.67L0.503356 99.1525L0 95.0847V90.0001V85.4237L0.503356 80.339L1.51007 72.3306L3.02013 67.1186L4.5302 62.5424L6.04027 57.9661L7.55034 54.6611L12.2693 45.2542L18.1208 36.9916L22.1477 32.0339L26.489 27.4576L31.2081 23.3898L34.2282 20.8475L36.2415 19.322Z" fill="white"/>
<rect x="88.5898" y="75.2544" width="79.5302" height="30.5085" fill="#3AAFE9"/>
<path d="M215.954 117.965C211.754 117.965 207.879 117.29 204.329 115.94C200.779 114.59 197.679 112.69 195.029 110.24C192.429 107.74 190.404 104.84 188.954 101.54C187.504 98.24 186.779 94.615 186.779 90.665C186.779 86.715 187.504 83.09 188.954 79.79C190.404 76.49 192.429 73.615 195.029 71.165C197.679 68.665 200.779 66.74 204.329 65.39C207.879 64.04 211.754 63.365 215.954 63.365C220.204 63.365 224.079 64.04 227.579 65.39C231.129 66.74 234.204 68.665 236.804 71.165C239.404 73.615 241.429 76.49 242.879 79.79C244.379 83.09 245.129 86.715 245.129 90.665C245.129 94.615 244.379 98.265 242.879 101.615C241.429 104.915 239.404 107.79 236.804 110.24C234.204 112.69 231.129 114.59 227.579 115.94C224.079 117.29 220.204 117.965 215.954 117.965ZM215.954 105.665C217.954 105.665 219.804 105.315 221.504 104.615C223.254 103.915 224.754 102.915 226.004 101.615C227.304 100.265 228.304 98.665 229.004 96.815C229.754 94.965 230.129 92.915 230.129 90.665C230.129 88.365 229.754 86.315 229.004 84.515C228.304 82.665 227.304 81.09 226.004 79.79C224.754 78.44 223.254 77.415 221.504 76.715C219.804 76.015 217.954 75.665 215.954 75.665C213.954 75.665 212.079 76.015 210.329 76.715C208.629 77.415 207.129 78.44 205.829 79.79C204.579 81.09 203.579 82.665 202.829 84.515C202.129 86.315 201.779 88.365 201.779 90.665C201.779 92.915 202.129 94.965 202.829 96.815C203.579 98.665 204.579 100.265 205.829 101.615C207.129 102.915 208.629 103.915 210.329 104.615C212.079 105.315 213.954 105.665 215.954 105.665ZM279.381 117.965C275.181 117.965 271.306 117.29 267.756 115.94C264.206 114.59 261.106 112.69 258.456 110.24C255.856 107.74 253.831 104.84 252.381 101.54C250.931 98.24 250.206 94.615 250.206 90.665C250.206 86.715 250.931 83.09 252.381 79.79C253.831 76.49 255.856 73.615 258.456 71.165C261.106 68.665 264.206 66.74 267.756 65.39C271.306 64.04 275.181 63.365 279.381 63.365C283.631 63.365 287.506 64.04 291.006 65.39C294.556 66.74 297.631 68.665 300.231 71.165C302.831 73.615 304.856 76.49 306.306 79.79C307.806 83.09 308.556 86.715 308.556 90.665C308.556 94.615 307.806 98.265 306.306 101.615C304.856 104.915 302.831 107.79 300.231 110.24C297.631 112.69 294.556 114.59 291.006 115.94C287.506 117.29 283.631 117.965 279.381 117.965ZM279.381 105.665C281.381 105.665 283.231 105.315 284.931 104.615C286.681 103.915 288.181 102.915 289.431 101.615C290.731 100.265 291.731 98.665 292.431 96.815C293.181 94.965 293.556 92.915 293.556 90.665C293.556 88.365 293.181 86.315 292.431 84.515C291.731 82.665 290.731 81.09 289.431 79.79C288.181 78.44 286.681 77.415 284.931 76.715C283.231 76.015 281.381 75.665 279.381 75.665C277.381 75.665 275.506 76.015 273.756 76.715C272.056 77.415 270.556 78.44 269.256 79.79C268.006 81.09 267.006 82.665 266.256 84.515C265.556 86.315 265.206 88.365 265.206 90.665C265.206 92.915 265.556 94.965 266.256 96.815C267.006 98.665 268.006 100.265 269.256 101.615C270.556 102.915 272.056 103.915 273.756 104.615C275.506 105.315 277.381 105.665 279.381 105.665ZM316.334 116.915V64.415H341.159C346.959 64.415 352.059 65.49 356.459 67.64C360.859 69.79 364.284 72.815 366.734 76.715C369.234 80.615 370.484 85.265 370.484 90.665C370.484 96.015 369.234 100.665 366.734 104.615C364.284 108.515 360.859 111.54 356.459 113.69C352.059 115.84 346.959 116.915 341.159 116.915H316.334ZM331.184 105.065H340.559C343.559 105.065 346.159 104.515 348.359 103.415C350.609 102.265 352.359 100.615 353.609 98.465C354.859 96.265 355.484 93.665 355.484 90.665C355.484 87.615 354.859 85.015 353.609 82.865C352.359 80.715 350.609 79.09 348.359 77.99C346.159 76.84 343.559 76.265 340.559 76.265H331.184V105.065ZM396.747 117.965C392.447 117.965 388.297 117.44 384.297 116.39C380.347 115.29 377.122 113.89 374.622 112.19L379.497 101.24C381.847 102.74 384.547 103.99 387.597 104.99C390.697 105.94 393.772 106.415 396.822 106.415C398.872 106.415 400.522 106.24 401.772 105.89C403.022 105.49 403.922 104.99 404.472 104.39C405.072 103.74 405.372 102.99 405.372 102.14C405.372 100.94 404.822 99.99 403.722 99.29C402.622 98.59 401.197 98.015 399.447 97.565C397.697 97.115 395.747 96.665 393.597 96.215C391.497 95.765 389.372 95.19 387.222 94.49C385.122 93.79 383.197 92.89 381.447 91.79C379.697 90.64 378.272 89.165 377.172 87.365C376.072 85.515 375.522 83.19 375.522 80.39C375.522 77.24 376.372 74.39 378.072 71.84C379.822 69.29 382.422 67.24 385.872 65.69C389.322 64.14 393.622 63.365 398.772 63.365C402.222 63.365 405.597 63.765 408.897 64.565C412.247 65.315 415.222 66.44 417.822 67.94L413.247 78.965C410.747 77.615 408.272 76.615 405.822 75.965C403.372 75.265 400.997 74.915 398.697 74.915C396.647 74.915 394.997 75.14 393.747 75.59C392.497 75.99 391.597 76.54 391.047 77.24C390.497 77.94 390.222 78.74 390.222 79.64C390.222 80.79 390.747 81.715 391.797 82.415C392.897 83.065 394.322 83.615 396.072 84.065C397.872 84.465 399.822 84.89 401.922 85.34C404.072 85.79 406.197 86.365 408.297 87.065C410.447 87.715 412.397 88.615 414.147 89.765C415.897 90.865 417.297 92.34 418.347 94.19C419.447 95.99 419.997 98.265 419.997 101.015C419.997 104.065 419.122 106.89 417.372 109.49C415.672 112.04 413.097 114.09 409.647 115.64C406.247 117.19 401.947 117.965 396.747 117.965ZM461.956 64.415H476.806V116.915H461.956V64.415ZM441.706 116.915H426.856V64.415H441.706V116.915ZM463.006 96.44H440.656V84.14H463.006V96.44ZM513.756 117.965C509.556 117.965 505.681 117.29 502.131 115.94C498.581 114.59 495.481 112.69 492.831 110.24C490.231 107.74 488.206 104.84 486.756 101.54C485.306 98.24 484.581 94.615 484.581 90.665C484.581 86.715 485.306 83.09 486.756 79.79C488.206 76.49 490.231 73.615 492.831 71.165C495.481 68.665 498.581 66.74 502.131 65.39C505.681 64.04 509.556 63.365 513.756 63.365C518.006 63.365 521.881 64.04 525.381 65.39C528.931 66.74 532.006 68.665 534.606 71.165C537.206 73.615 539.231 76.49 540.681 79.79C542.181 83.09 542.931 86.715 542.931 90.665C542.931 94.615 542.181 98.265 540.681 101.615C539.231 104.915 537.206 107.79 534.606 110.24C532.006 112.69 528.931 114.59 525.381 115.94C521.881 117.29 518.006 117.965 513.756 117.965ZM513.756 105.665C515.756 105.665 517.606 105.315 519.306 104.615C521.056 103.915 522.556 102.915 523.806 101.615C525.106 100.265 526.106 98.665 526.806 96.815C527.556 94.965 527.931 92.915 527.931 90.665C527.931 88.365 527.556 86.315 526.806 84.515C526.106 82.665 525.106 81.09 523.806 79.79C522.556 78.44 521.056 77.415 519.306 76.715C517.606 76.015 515.756 75.665 513.756 75.665C511.756 75.665 509.881 76.015 508.131 76.715C506.431 77.415 504.931 78.44 503.631 79.79C502.381 81.09 501.381 82.665 500.631 84.515C499.931 86.315 499.581 88.365 499.581 90.665C499.581 92.915 499.931 94.965 500.631 96.815C501.381 98.665 502.381 100.265 503.631 101.615C504.931 102.915 506.431 103.915 508.131 104.615C509.881 105.315 511.756 105.665 513.756 105.665ZM561.152 116.915V76.19H545.027V64.415H592.052V76.19H576.002V116.915H561.152Z" fill="white"/>
</svg>
