<svg width="169" height="180" viewBox="0 0 169 180" fill="none" xmlns="http://www.w3.org/2000/svg">
<path d="M36.2415 19.322L42.7852 14.7458L49.6437 10.678L57.3825 7.11864L65.9396 4.0678L73.4899 2.0339L80.2231 1.01695L88.0872 0L94.8837 0H103.188L110.738 1.08197L118.413 2.54237L125.336 4.57627L132.886 7.11864L140.436 10.678L147.483 14.7458L153.526 19.322L131.882 43.7748L125.839 40.1695L119.295 37.1186L113.758 35.0847L109.732 34.0678L106.711 33.5593L99.1611 32.5424H92.6174L84.5638 33.5593L77.0134 35.5932L70.4698 38.1356L58.3893 45.2542L53.8591 49.8305L49.3289 54.4068L46.3087 58.4746L43.7919 62.2997L41.7785 65.5932L40.2685 69.1525L39.2617 72.7119L38.255 76.2712L37.7517 78.3051L37.2483 80.339L36.745 83.3898L36.2416 86.9492L36.2415 90.5316V94.5763L36.745 98.6441L37.2483 102.712L38.398 106.271L39.7651 109.831L40.7718 112.881L42.2819 115.932L43.7919 118.74L47.3154 124.068L51.0365 128.644L55.8725 133.22L60.0314 136.78L65.4362 140.339L70.9732 142.949L77.0134 145.458L84.0604 147.458L87.5839 147.966L90.604 148.475H96.6443L103.188 147.966L106.208 147.458L109.228 146.949L115.772 145.458L121.812 142.949L124.329 141.864L126.846 140.339L131.882 137.288L153.526 160.678L146.477 165.763L138.423 170.339L131.376 173.39L124.205 175.932L116.779 177.966L109.544 178.983L102.181 180H94.8837H87.5839L80.2231 178.983L72.9866 177.966L65.5626 175.932L57.3825 172.881L49.8954 169.322L42.7852 165.254L36.2415 160.678L30.7047 156.61L26.4892 152.542L22.1477 147.966L18.1208 143.009L15.1007 138.814L12.0805 134.174L9.56376 129.661L7.55034 125.339L6.04027 122.034L4.5302 117.458L3.02013 112.881L1.51007 107.67L0.503356 99.1525L0 95.0847V90.0001V85.4237L0.503356 80.339L1.51007 72.3306L3.02013 67.1186L4.5302 62.5424L6.04027 57.9661L7.55034 54.6611L12.2693 45.2542L18.1208 36.9916L22.1477 32.0339L26.489 27.4576L31.2081 23.3898L34.2282 20.8475L36.2415 19.322Z" fill="white"/>
<rect x="88.5898" y="75.2544" width="79.5302" height="30.5085" fill="#3AAFE9"/>
</svg>
